<svg xmlns="http://www.w3.org/2000/svg" width="710.154" height="499.9" viewBox="0 0 710.154 499.9">
  <defs>
    <style>
      .cls-1 {
        fill: #fff;
        fill-rule: evenodd;
      }
    </style>
  </defs>
  <path id="white.png_white.svg" data-name="white.png, white.svg" class="cls-1" d="M1255.99,1175.26a107.784,107.784,0,0,1-19.4,6.55,42.594,42.594,0,0,1-41.2,39.1,42.578,42.578,0,0,0-30.34-73.63,42.463,42.463,0,0,1,56.78-1.27,109.951,109.951,0,0,1,17.44-9.3c28.68-12.43,60.29-3.24,60.29-3.24S1284.67,1162.83,1255.99,1175.26Zm-181.65,65.21,64.52-27.37-62.16,43.18v371.58c-0.35,0-.71.02-1.06,0.02-37.79,0-72.79-15.94-102.078-43.43a241.357,241.357,0,0,1-141.431,45.64c-95.221,0-177.767-55.14-217.5-135.14-7.873-21.82-9.252-52.1,31.6-69.09,16.226-6.75,42.791-17,57.143-23.25,19.03-8.29,40.033-17.45,62.22-27.13v11.88a66.54,66.54,0,1,0,133.079,0v-70.03c65.442-28.61,128.589-56.25,173.359-75.85l0.01-.03,2.03-.86,0.27-.12h0Zm-175.669,7.59a88.059,88.059,0,0,1,171.579-27.95c-37.15,11.81-100.882,32.07-171.579,54.55v-26.6Zm-285.5,117.36c-16.125,5.26-21.786-1.55-23.774-9.34V1248.04a88.1,88.1,0,0,1,176.191,0v68.93c-48.677,15.47-95.029,30.21-132.936,42.26C625.881,1361.39,619.362,1363.41,613.175,1365.42Zm365.25,58.01a8.715,8.715,0,1,1-8.664,8.71A8.687,8.687,0,0,1,978.425,1423.43Zm-295.933-214.3a8.715,8.715,0,1,1-8.663,8.72A8.69,8.69,0,0,1,682.492,1209.13ZM1066.6,1576.49a5.105,5.105,0,1,1-5.1,5.11A5.1,5.1,0,0,1,1066.6,1576.49Zm-68.032-299.33a5.1,5.1,0,1,1-5.1,5.1A5.1,5.1,0,0,1,998.568,1277.16ZM743.454,1477.85a5.1,5.1,0,1,1-5.1,5.1A5.1,5.1,0,0,1,743.454,1477.85Z" transform="translate(-589.406 -1130.19)"/>
</svg>
